<?xml version="1.0" encoding="UTF-8" standalone="no"?>
<svg
   xmlns:dc="http://purl.org/dc/elements/1.1/"
   xmlns:cc="http://creativecommons.org/ns#"
   xmlns:rdf="http://www.w3.org/1999/02/22-rdf-syntax-ns#"
   xmlns:svg="http://www.w3.org/2000/svg"
   xmlns="http://www.w3.org/2000/svg"
   xmlns:sodipodi="http://sodipodi.sourceforge.net/DTD/sodipodi-0.dtd"
   xmlns:inkscape="http://www.inkscape.org/namespaces/inkscape"
   width="1.3333334in"
   height="1.3333334in"
   viewBox="0 0 33.866668 33.866668"
   version="1.1"
   id="svg1524"
   inkscape:version="1.0.2 (e86c870879, 2021-01-15)"
   sodipodi:docname="mark_128.svg">
  <defs
     id="defs1518" />
  <sodipodi:namedview
     id="base"
     pagecolor="#ffffff"
     bordercolor="#666666"
     borderopacity="1.0"
     inkscape:pageopacity="0.0"
     inkscape:pageshadow="2"
     inkscape:zoom="0.625"
     inkscape:cx="146.20556"
     inkscape:cy="150.00073"
     inkscape:document-units="mm"
     inkscape:current-layer="g2179"
     inkscape:document-rotation="0"
     showgrid="false"
     inkscape:window-width="2560"
     inkscape:window-height="1369"
     inkscape:window-x="2560"
     inkscape:window-y="34"
     inkscape:window-maximized="1"
     units="in"
     fit-margin-top="0"
     fit-margin-left="0"
     fit-margin-right="0"
     fit-margin-bottom="0" />
  <metadata
     id="metadata1521">
    <rdf:RDF>
      <cc:Work
         rdf:about="">
        <dc:format>image/svg+xml</dc:format>
        <dc:type
           rdf:resource="http://purl.org/dc/dcmitype/StillImage" />
        <dc:title></dc:title>
      </cc:Work>
    </rdf:RDF>
  </metadata>
  <g
     inkscape:label="Layer 1"
     inkscape:groupmode="layer"
     id="layer1"
     transform="translate(-67.149779,-98.955532)">
    <g
       id="g2121"
       transform="matrix(1.8094151,0,0,1.8069258,-90.599846,-111.03084)"
       style="stroke-width:0.553045">
      <g
         id="g2179"
         transform="translate(1.6303627,-4.87015)">
        <g
           id="g1735"
           transform="matrix(0.41503043,0,0,0.41559833,50.045492,70.760582)"
           style="stroke-width:1.33163">
          <path
             d="m 108.10114,121.0821 c -12.447767,0 -22.539321,10.08697 -22.548841,22.53368 v -0.001 17.45121 c 0.007,2.82504 2.29834,5.11422 5.126207,5.11422 0.007,0 0.018,-10e-4 0.0247,-10e-4 v 10e-4 h 17.406044 c 12.44918,-0.007 22.54074,-10.09826 22.54074,-22.54885 0,-12.45341 -10.09545,-22.54885 -22.54885,-22.54885 z"
             style="fill:#51a2da;fill-opacity:1;fill-rule:nonzero;stroke:none;stroke-width:0.46977"
             id="path28" />
          <path
             d="m 112.67208,130.36016 c -3.51684,0 -6.62305,2.64724 -7.05132,6.1214 -0.0303,0.29068 -0.043,0.50165 -0.0441,0.76482 v 14.1993 c 0,2.72309 -2.03412,4.57659 -4.58223,4.57659 -2.550577,0 -4.607977,-2.03694 -4.607977,-4.58223 0.0427,-2.79189 2.27224,-4.56001 4.879617,-4.63691 l 2.66384,-0.0236 v -3.75355 l -2.64195,0.018 c -4.743097,-0.0445 -8.518874,3.671 -8.656804,8.39611 0,4.59316 3.780007,8.34143 8.361884,8.34143 4.32294,0 7.92127,-3.38032 8.31391,-7.60695 l 0.0233,-5.38515 3.28119,-0.0208 c 2.54106,0.018 2.51495,-3.81176 -0.0261,-3.75919 l -3.25509,0.0219 v -5.77251 c 0.006,-1.66758 1.5875,-3.13901 3.34187,-3.13901 1.75542,0 3.6075,0.8763 3.6075,3.14325 0,0.32385 -0.008,0.51258 -0.0247,0.63112 -0.19685,1.05128 0.52246,2.05458 1.58185,2.20627 1.05834,0.15028 2.02989,-0.61207 2.13466,-1.67569 0.0593,-0.42193 0.0635,-0.79093 0.0635,-1.1617 0,-3.99909 -3.5761,-6.9028 -7.36282,-6.9028 z"
             style="fill:#fafafa;fill-opacity:1;fill-rule:nonzero;stroke:none;stroke-width:0.46977"
             id="path30"
             sodipodi:nodetypes="ccccsccccccsccccccsscccscc" />
        </g>
      </g>
    </g>
  </g>
</svg>
