<?xml version="1.0" encoding="UTF-8" standalone="no"?>
<svg
   width="400"
   height="120"
   version="1.1"
   id="svg8"
   sodipodi:docname="trash-icon.svg"
   inkscape:version="1.2.2 (b0a8486541, 2022-12-01)"
   xmlns:inkscape="http://www.inkscape.org/namespaces/inkscape"
   xmlns:sodipodi="http://sodipodi.sourceforge.net/DTD/sodipodi-0.dtd"
   xmlns="http://www.w3.org/2000/svg"
   xmlns:svg="http://www.w3.org/2000/svg">
  <defs
     id="defs12" />
  <sodipodi:namedview
     id="namedview10"
     pagecolor="#505050"
     bordercolor="#eeeeee"
     borderopacity="1"
     inkscape:showpageshadow="0"
     inkscape:pageopacity="0"
     inkscape:pagecheckerboard="0"
     inkscape:deskcolor="#505050"
     showgrid="false"
     inkscape:zoom="1.9833265"
     inkscape:cx="270.00094"
     inkscape:cy="1.0084069"
     inkscape:window-width="1920"
     inkscape:window-height="990"
     inkscape:window-x="0"
     inkscape:window-y="0"
     inkscape:window-maximized="1"
     inkscape:current-layer="g6" />
  <g
     transform="translate(0 -932.36)"
     id="g6">
    <rect
       x="10"
       y="942.36"
       width="380"
       height="160"
       rx="18"
       ry="18"
       fill="#4d4d4d"
       stroke-width="0"
       id="rect2"
       style="fill:#333333;fill-opacity:1" />
    <path
       class="ColorScheme-Text"
       d="m200 964.36c-4.4183 0-8 3.5817-8 8h-16v4h48v-4h-16c0-4.4183-3.5817-8-8-8zm0 4c2.2091 1e-5 4 1.7909 4 4h-8c1e-5 -2.2091 1.7909-4 4-4zm-20 12v32c0 4.4321 3.5679 8.0001 8 8.0001h24c4.4321 0 8-3.568 8-8.0001v-32h-38zm4 4h32v28c0 2.2161-1.7839 4.0001-4 4.0001h-24c-2.2161 0-4-1.784-4-4.0001z"
       fill="#ececec"
       id="path4"
       style="fill:#f9f5d7;fill-opacity:1" />
  </g>
</svg>
